<?xml version="1.0" encoding="UTF-8" standalone="no"?>
<!-- Created with Inkscape (http://www.inkscape.org/) -->

<svg
   width="153.29672mm"
   height="45.056973mm"
   viewBox="0 0 153.29672 45.056973"
   version="1.1"
   id="svg1"
   xml:space="preserve"
   xmlns="http://www.w3.org/2000/svg"
   xmlns:svg="http://www.w3.org/2000/svg"><defs
     id="defs1" /><g
     id="layer1"
     transform="translate(-24.732444,-95.131872)"><g
       id="g1"
       transform="matrix(0.56756833,0,0,0.56756833,-40.017935,-22.620669)"><g
         fill="#00192e"
         id="g4" /><g
         fill="#fefefd"
         id="g8"><path
           d="m 118.1,285.6 c -1.4,-0.8 -2.8,-2.2 -3.2,-3.2 -1.2,-2.9 -1,-52.4 0.1,-56.6 1.3,-4.5 7.4,-10 12.9,-11.6 2.4,-0.8 12.4,-1.2 27.4,-1.2 h 23.5 l 3.1,2.6 c 3.9,3.3 4.2,8 0.8,11.2 -2.2,2.1 -3.1,2.2 -24.9,2.2 -21.3,0 -22.7,0.1 -25.2,2.1 -2.2,1.7 -2.6,2.8 -2.6,7 v 5 l 13.8,-0.2 c 15,-0.2 17.6,0.5 19.2,4.7 1.5,3.8 1.2,5 -1.4,8.1 -2.4,2.8 -2.6,2.8 -16.8,3.3 l -14.3,0.5 -0.5,11.3 c -0.5,10.9 -0.6,11.5 -3.3,13.8 -3.2,2.7 -5.1,2.9 -8.6,1 z"
           id="path5" /><path
           d="m 332.8,285.7 c -2.6,-0.8 -6.2,-2.5 -8.1,-4 -3.2,-2.5 -6.7,-8 -6.7,-10.8 0,-0.7 -1,-0.3 -2.4,1 -3.4,3.2 -9,4.3 -15.3,3 -9.5,-1.9 -17.4,-9.8 -19.1,-19.1 -2.7,-14.5 6.3,-27.1 20.9,-29.3 4.2,-0.6 6.8,0 13.2,3.3 0.4,0.2 0.7,-3.9 0.7,-9.1 0,-7.7 0.3,-9.7 1.8,-10.9 3.9,-3.5 8.8,-3 11.9,1.1 0.9,1.2 1.2,8.8 1.3,27.8 v 26.2 l 2.4,2.8 c 2.1,2.4 3.2,2.8 7.5,2.8 4.1,0 5.5,-0.5 7.6,-2.6 l 2.6,-2.5 -7.6,-14.3 c -4.1,-7.9 -7.5,-15 -7.5,-15.7 0,-2.8 2.4,-6.3 5,-7.4 4.9,-2 7.9,0.5 14,11.9 2.9,5.5 5.7,9.8 6,9.6 0.4,-0.2 2.4,-4.5 4.5,-9.4 2,-5 4.6,-9.8 5.7,-10.8 2.5,-2.2 8.1,-2.2 10.6,0.1 4.1,3.6 3.5,6 -6.6,26 -5.3,10.5 -10.8,20.4 -12.3,22.1 -6.2,7 -20.4,10.9 -30.1,8.2 z m -19.4,-27.6 c 1.6,-1.6 2.1,-3.4 2.1,-7.2 0,-4.3 -0.4,-5.4 -2.8,-7.5 -6.6,-5.7 -16.7,-1.1 -16.7,7.6 0,3.3 0.6,4.8 3,7.2 2.8,2.7 3.6,3 7.7,2.5 2.8,-0.3 5.4,-1.3 6.7,-2.6 z"
           id="path6" /><path
           d="m 192.8,274.7 c -14.4,-4.1 -22.1,-20.2 -16.1,-33.7 5.7,-12.8 21.8,-18.4 34.4,-11.9 5.4,2.7 8.6,6.2 11.5,12.4 4,8.5 2.9,16.2 -3.7,24.6 -6.4,8 -16.3,11.3 -26.1,8.6 z m 12.1,-15.1 c 9.1,-4.8 5.1,-18.5 -5.5,-18.6 -7.5,0 -12.2,7.5 -8.9,14.3 2.5,5.4 8.7,7.2 14.4,4.3 z"
           id="path7" /><path
           d="m 246.1,275 c -8.3,-1.8 -17.2,-11.6 -18.7,-20.7 -1.5,-9.4 4.7,-20.7 14,-25.5 5.8,-3 16.5,-3.1 22.1,-0.1 5.2,2.8 11,8.8 13,13.5 1.9,4.6 1.9,12.8 0.1,17.2 -1.9,4.6 -8.2,11.3 -12.6,13.6 -4.6,2.3 -12.1,3.2 -17.9,2 z m 11.3,-15 c 2.7,-1 5.6,-5.6 5.6,-9 0,-1.2 -0.7,-3.4 -1.5,-5 -4.1,-7.9 -16,-6.7 -18.6,1.9 -2.7,9 5.3,15.6 14.5,12.1 z"
           id="path8" /></g><g
         opacity="0.5"
         transform="rotate(-45,250,250)"
         id="g9" /></g></g></svg>
